<?xml version="1.0" standalone="no"?><!DOCTYPE svg PUBLIC "-//W3C//DTD SVG 1.1//EN" "http://www.w3.org/Graphics/SVG/1.1/DTD/svg11.dtd"><svg t="1723309395483" class="icon" viewBox="0 0 1024 1024" version="1.1" xmlns="http://www.w3.org/2000/svg" p-id="9277" xmlns:xlink="http://www.w3.org/1999/xlink" width="200" height="200"><path d="M512 846.933333c-4.266667 0-8.533333-2.133333-10.666667-4.266666-174.933333-128-358.4-313.6-358.4-452.266667 0-36.266667 4.266667-55.466667 8.533334-61.866667 0-2.133333 2.133333-2.133333 2.133333-4.266666 27.733333-89.6 108.8-149.333333 202.666667-149.333334 42.666667 0 87.466667 14.933333 128 42.666667 8.533333 6.4 19.2 10.666667 29.866666 10.666667 10.666667 0 21.333333-4.266667 29.866667-10.666667 38.4-27.733333 83.2-42.666667 128-42.666667 91.733333 0 172.8 59.733333 202.666667 149.333334 0 2.133333 0 2.133333 2.133333 4.266666 6.4 12.8 8.533333 32 8.533333 61.866667 0 140.8-194.133333 330.666667-360.533333 450.133333-6.4 6.4-10.666667 6.4-12.8 6.4z" fill="#F68C6B" p-id="9278"></path><path d="M669.866667 209.066667c76.8 0 147.2 51.2 172.8 128 0 2.133333 2.133333 6.4 4.266666 8.533333 2.133333 4.266667 6.4 14.933333 6.4 49.066667 0 119.466667-168.533333 294.4-339.2 420.266666-160-119.466667-341.333333-298.666667-341.333333-422.4 0-36.266667 4.266667-46.933333 6.4-49.066666 2.133333-2.133333 2.133333-6.4 4.266667-8.533334 23.466667-76.8 93.866667-128 172.8-128 46.933333 0 83.2 19.2 106.666666 36.266667 12.8 10.666667 32 17.066667 49.066667 17.066667 17.066667 0 34.133333-6.4 49.066667-17.066667 23.466667-14.933333 61.866667-34.133333 108.8-34.133333m0-64c-53.333333 0-104.533333 19.2-147.2 49.066666-4.266667 2.133333-6.4 4.266667-10.666667 4.266667s-6.4-2.133333-10.666667-4.266667c-42.666667-29.866667-93.866667-49.066667-147.2-49.066666-108.8 0-200.533333 72.533333-232.533333 170.666666-8.533333 17.066667-12.8 44.8-12.8 76.8 0 187.733333 279.466667 407.466667 371.2 475.733334 8.533333 6.4 19.2 10.666667 29.866667 10.666666s21.333333-4.266667 29.866666-10.666666c93.866667-68.266667 373.333333-288 373.333334-475.733334 0-34.133333-4.266667-59.733333-12.8-76.8-29.866667-100.266667-121.6-170.666667-230.4-170.666666z" fill="#F95D5D" p-id="9279"></path><path d="M723.2 499.2c-4.266667 0-10.666667-2.133333-14.933333-4.266667-14.933333-8.533333-21.333333-27.733333-12.8-42.666666 12.8-25.6 14.933333-40.533333 14.933333-46.933334v-12.8l-2.133333-8.533333c-10.666667-29.866667-36.266667-51.2-66.133334-51.2-17.066667 0-32-14.933333-32-32s14.933333-32 32-32c57.6 0 108.8 38.4 128 93.866667l4.266667 14.933333c0 6.4 2.133333 14.933333 2.133333 25.6 0 21.333333-8.533333 46.933333-23.466666 76.8-8.533333 12.8-19.2 19.2-29.866667 19.2z" fill="#FFFFFF" p-id="9280"></path></svg>