<?xml version="1.0" standalone="no"?><!DOCTYPE svg PUBLIC "-//W3C//DTD SVG 1.1//EN" "http://www.w3.org/Graphics/SVG/1.1/DTD/svg11.dtd"><svg t="1723307664846" class="icon" viewBox="0 0 1024 1024" version="1.1" xmlns="http://www.w3.org/2000/svg" p-id="2579" xmlns:xlink="http://www.w3.org/1999/xlink" width="200" height="200"><path d="M842.52672 465.63328L576.7168 199.5776a88.69888 88.69888 0 0 0-124.57984 0.08192L186.3168 465.63328c-27.46368 27.46368-23.86944 51.2-19.456 61.11232a46.08 46.08 0 0 0 45.53728 26.368h39.04512v204.63616c0 46.47936 34.74432 90.22464 84.03968 90.22464h113.21344V631.43936c0-23.2448-3.67616-36.1472 21.05344-36.1472h89.36448c24.64768 0 20.97152 12.91264 20.97152 36.1472v216.59648h113.152c49.29536 0 84.03968-43.74528 84.03968-90.22464v-204.6976h38.97344a46.00832 46.00832 0 0 0 45.54752-26.368c4.59776-9.86112 8.12032-33.64864-19.27168-61.11232z" fill="#4ab344" p-id="2580"></path></svg>